<?xml version="1.0" encoding="UTF-8"?>
<!DOCTYPE svg PUBLIC "-//W3C//DTD SVG 1.1//EN" "http://www.w3.org/Graphics/SVG/1.1/DTD/svg11.dtd">
<svg xmlns="http://www.w3.org/2000/svg" version="1.1" width="960px" height="854px" style="shape-rendering:geometricPrecision; text-rendering:geometricPrecision; image-rendering:optimizeQuality; fill-rule:evenodd; clip-rule:evenodd" xmlns:xlink="http://www.w3.org/1999/xlink">
<g><path style="opacity:0.986" fill="#4dbad9" d="M 477.5,14.5 C 539.57,11.0669 599.237,21.2336 656.5,45C 691.934,61.71 723.1,83.5433 750,110.5C 760.034,130.599 753.867,142.766 731.5,147C 712.565,149.712 693.898,148.379 675.5,143C 652.511,134.67 629.511,126.337 606.5,118C 538.43,98.4297 470.43,98.7631 402.5,119C 350.962,134.769 303.629,158.436 260.5,190C 207.12,228.938 161.954,275.771 125,330.5C 88.8442,385.465 74.5108,445.798 82,511.5C 87.8252,576.347 110.492,634.347 150,685.5C 204.78,748.801 274.28,781.968 358.5,785C 418.47,786.67 477.136,778.67 534.5,761C 538.841,759.654 543.174,759.487 547.5,760.5C 547.66,762.199 547.494,763.866 547,765.5C 536.907,774.244 525.741,781.411 513.5,787C 440.495,819.584 364.829,827.917 286.5,812C 220.394,794.554 166.561,758.72 125,704.5C 55.6671,609.53 25.0005,503.197 33,385.5C 44.6737,304.04 78.3404,233.374 134,173.5C 213.8,91.8408 310.3,41.0075 423.5,21C 441.552,17.9928 459.552,15.8261 477.5,14.5 Z"/></g>
<g><path style="opacity:0.976" fill="#4dbad9" d="M 489.5,151.5 C 502.5,151.5 515.5,151.5 528.5,151.5C 525.631,171.26 532.631,186.427 549.5,197C 570.969,203.59 589.135,198.423 604,181.5C 607.22,176.288 608.72,170.622 608.5,164.5C 620.174,165.427 631.841,166.427 643.5,167.5C 640.491,195.383 628.491,218.55 607.5,237C 596.483,246.173 583.816,250.173 569.5,249C 523.994,242.493 497.161,216.66 489,171.5C 488.287,164.797 488.454,158.13 489.5,151.5 Z"/></g>
<g><path style="opacity:1" fill="#4dbad9" d="M 781.5,151.5 C 806.216,157.525 828.549,168.358 848.5,184C 903.493,227.823 930.659,284.99 930,355.5C 928.947,369.487 926.28,383.154 922,396.5C 904.229,356.062 874.729,327.896 833.5,312C 808.59,303.151 782.923,298.151 756.5,297C 736.833,296.333 717.167,296.333 697.5,297C 677.826,298.267 658.16,299.267 638.5,300C 644.897,295.273 651.564,290.94 658.5,287C 680.301,277.608 700.635,265.942 719.5,252C 747.64,223.241 768.307,189.741 781.5,151.5 Z M 792.5,204.5 C 801.614,203.137 807.448,206.804 810,215.5C 811.859,226.274 808.359,234.774 799.5,241C 790.072,242.371 783.906,238.538 781,229.5C 779.48,218.548 783.313,210.215 792.5,204.5 Z"/></g>
<g><path style="opacity:0.983" fill="#4dbad9" d="M 447.5,218.5 C 454.226,218.205 460.892,218.538 467.5,219.5C 475.99,239.158 489.324,254.658 507.5,266C 527.57,277.138 548.903,285.138 571.5,290C 571.957,290.414 572.291,290.914 572.5,291.5C 518.527,301.077 465.527,314.577 413.5,332C 368.165,348.166 325.831,369.833 286.5,397C 238.961,430.201 204.461,473.701 183,527.5C 167.438,570.452 164.104,614.119 173,658.5C 146.605,600.191 136.605,539.191 143,475.5C 150.356,428.808 169.023,387.474 199,351.5C 243.162,302.378 296.329,266.211 358.5,243C 387.418,231.631 417.084,223.465 447.5,218.5 Z"/></g>
</svg>
